<svg xmlns="http://www.w3.org/2000/svg" xmlns:xlink="http://www.w3.org/1999/xlink" viewBox="0 0 512 512"><defs><style>.cls-1{isolation:isolate;}.cls-2,.cls-5{fill:#fff;}.cls-3{fill:#323334;}.cls-4{fill:#979797;}.cls-4,.cls-5,.cls-8{mix-blend-mode:screen;}.cls-6{fill:url(#linear-gradient);}.cls-7{fill:#cfd1d2;mix-blend-mode:multiply;}.cls-8{fill:#4a4b4c;}</style><linearGradient id="linear-gradient" x1="349.98" y1="253.43" x2="425.01" y2="205.31" gradientTransform="matrix(1, 0, 0, 1, 0.16, -0.23)" gradientUnits="userSpaceOnUse"><stop offset="0.29" stop-color="#9e9e9e"/><stop offset="0.38" stop-color="#aaa"/><stop offset="0.56" stop-color="#cacaca"/><stop offset="0.69" stop-color="#e6e6e6"/><stop offset="0.74" stop-color="#ececec"/><stop offset="0.87" stop-color="#f9f9f9"/><stop offset="1" stop-color="#fdfdfd"/></linearGradient></defs><title>512</title><g class="cls-1"><g id="Layer_1" data-name="Layer 1"><rect class="cls-2" width="512" height="512" rx="92.26" ry="92.26"/><path class="cls-3" d="M458.86,255.64c.2,112-90.47,203-202.49,203.22s-203-90.47-203.23-202.5,90.47-203,202.51-203.22S458.66,143.6,458.86,255.64Z"/><path class="cls-2" d="M87.09,238.39A220.06,220.06,0,0,0,70,292.1c-2.89,15.38-2.1,21.34,9.79,38.26,22.76,32.36,31.2,41.18,39,39.86s44.4-9.26,55.1-11.88c8.1-2,8.1-3.94,11.31-18s8.37-33.72,9.65-44.53-.34-10.47-9.76-22.23-31.85-41.83-36.39-47.38-6.83-3.92-17.52-2.27-26.9,5.94-34.67,7.92S88.71,235.77,87.09,238.39Z"/><path class="cls-2" d="M102.71,128.32a329.78,329.78,0,0,0-18.95,29c-5,9.1-3.46,22.23-.41,47.47S88.9,230,98.39,228s36-7.64,43-9.17,12.48-13.66,19-24.27S192.77,150.41,198,145.1c4.95-4.41,3.48-8.83,2-20.58s-5-36.14-8.23-37-28-.86-37.27-1.42S121.6,104.55,102.71,128.32Z"/><path class="cls-2" d="M197.91,296.85s-9.74,39.34-13,54.54c-1.62,8.92-1.94,10.91,16.41,23.1s27.52,19.44,33.42,22.73,11.13,3.3,28.16-.7,33.87-7.59,40.89-10.65c6.87-3,17.63-26.79,22.51-42.65s8.78-28.77,1.9-34.37S313.13,294.67,302,287.09s-20.64-17.48-24.89-15.49-48.21,13-65.21,17.59C203.8,291.47,198.51,293.43,197.91,296.85Z"/><path class="cls-2" d="M232.34,452.57s8-33.59,9.28-41.74,4.19-8.49,15.81-10.47,42.61-11.15,48.1-13.11,8.77-3,18.15,4.16,30.34,22.8,37.46,27.68c5.17,3.58-18.78,20.92-50,29.43C275,458.36,232,458.11,232.34,452.57Z"/><path class="cls-2" d="M204.43,136.26s-4.31-24.31-5.89-37.64,0-11.77,17.45-19.26,59-17,68-17.77,19.43,1.93,42,13.27,28.4,15.24,29.58,21.91,3.94,37.26,4.36,51.38c-.37,9.8-3.74,8.65-20.36,15.5-17,7-33.29,13.86-37.27,16.16-5.41,2.31-14.51-3.1-29.49-12.81-13.3-8.61-40.62-20.41-52.3-23.84S205.79,142,204.43,136.26Z"/><path class="cls-2" d="M298.82,190.78s-8.34,38-12.3,57.34c-4,18.59-2.76,21.41,8.45,29.87s24,20.54,30.84,25.78S337,315.08,358.62,309c27.18-7.72,34.39-9.75,42.77-12.59s10-6.08,13.16-21.42,5.54-38.36,7.12-50.89-.83-14.52-10.85-24.61S382,173.27,374.76,166s-12.41-8.06-21.2-4.81-32.77,12.17-41.57,17S300,183.51,298.82,190.78Z"/><path class="cls-2" d="M444.7,205.19s-13.06,4.32-17.05,6.22-3.45,14.8-5,28-6.33,38.5-9.52,49.8c-1.85,5.39,5.59,9.89,11.77,19.9,9.63,15.6,14.71,24.21,16.84,21.23s15.94-33.4,15.32-83.72C455.39,224,451.36,201.41,444.7,205.19Z"/><path class="cls-2" d="M64.07,316.84s1.91-5.54,3.59-2.65,20.8,34.38,36.33,51.2c5.49,5.29,6.93,6.73,7.66,16.6s-.45,12.28-6.19,6.51S72,347.88,64.07,316.84Z"/><path class="cls-2" d="M297.37,57.73s-2.87-1-4.06.24,5.49,3.13,17.19,8.16S340.33,80.27,348,85.56c5.25,3.12,7.4,3.83,11.93,1.9s6-2.66.71-5.53S321.93,61.29,297.37,57.73Z"/><path class="cls-4" d="M292.37,393.16s-25.28,6.24-41.51,9.86c-10.66,1.37-9.32,19.31-14,39.11,0,0,6.42-22.89,9.65-31.11S263,405.2,292.37,393.16Z"/><path class="cls-5" d="M112.78,119.91s23-24.19,32.43-29.39,44.87-1.72,44.87-1.72-24.89.82-36.61,1.5S112.78,119.91,112.78,119.91Z"/><path class="cls-2" d="M240,74s35.75-10.37,46.9-10.86S320.34,72,345,86c-27.43-12.14-47.89-20.08-56.25-20.06S240,74,240,74Z"/><path class="cls-2" d="M106.1,232.7s32-8.14,36.79-7.33,42.49,52.4,42.49,52.4-32.87-40.31-42.48-45.14S106.1,232.7,106.1,232.7Z"/><path class="cls-6" d="M387.18,179.42S409,199.86,415.4,206.3s6,6.81.47,53.84c2.58-30,4.06-42.47-1.59-50S387.18,179.42,387.18,179.42Z"/><path class="cls-5" d="M190,315.36s-5.17,23.44-8,34-12.78,9.11-38.36,14.42c27-8.18,33.63-9.15,36-16.33S190,315.36,190,315.36Z"/><path class="cls-5" d="M190.4,331.73s5.57-23,7.55-32.31c2.78-8.89,20.38-10.14,38.77-15,0,0-17.19,5.69-28.38,10.14S197.17,314,190.4,331.73Z"/><path class="cls-2" d="M201.1,372.61s20.16,14.36,29,20.29,13.78,6.42,36.87,1.42,29.48-7.49,29.48-7.49-32.43,7-49.14,7.53S201.1,372.61,201.1,372.61Z"/><path class="cls-5" d="M287.58,254.19s9.11-49.85,12-61.59,23.69-18.12,45.46-26.95c0,0-24.66,12.75-34.33,19.12S302,198.46,287.58,254.19Z"/><path class="cls-5" d="M307.79,294.34s14.63,11.93,19.38,16.31,4.76,15.53-9.78,50.64c6.27-23.53,14.92-43.48,6.22-51.43S307.79,294.34,307.79,294.34Z"/><path class="cls-5" d="M82.31,339.35S94,355.28,102.12,364.28c7.08,7.34,8.54,8.6,8.57,23.5-1.07-9.65-2.34-14.35-6.92-19.16S82.31,339.35,82.31,339.35Z"/><path class="cls-7" d="M255.65,53.14c-112,.2-202.71,91.18-202.51,203.22s91.18,202.69,203.23,202.5,202.69-91.19,202.49-203.22S367.68,52.94,255.65,53.14ZM254,416.82C151.79,417,68.77,338.36,68.6,241.17S151.17,65,253.42,64.86s185.25,78.46,185.42,175.66S356.27,416.64,254,416.82Z"/><path class="cls-8" d="M224.52,157.26c5.66,6.68,3.4,17.89-5,25s-19.87,7.52-25.53.84-3.39-17.9,5-25S218.87,150.58,224.52,157.26Z"/><path class="cls-8" d="M187.83,193.65c2.51,3,1.51,7.93-2.23,11.1s-8.8,3.33-11.31.37-1.51-7.93,2.23-11.09S185.32,190.69,187.83,193.65Z"/></g></g></svg>