<svg xmlns="http://www.w3.org/2000/svg" xmlns:xlink="http://www.w3.org/1999/xlink" viewBox="0 0 72 72"><defs><style>.cls-1{isolation:isolate;}.cls-2,.cls-5{fill:#fff;}.cls-3{fill:#323334;}.cls-4{fill:#979797;}.cls-4,.cls-5,.cls-8{mix-blend-mode:screen;}.cls-6{fill:url(#linear-gradient);}.cls-7{fill:#cfd1d2;mix-blend-mode:multiply;}.cls-8{fill:#4a4b4c;}</style><linearGradient id="linear-gradient" x1="48.7" y1="38.02" x2="59.25" y2="31.25" gradientTransform="matrix(1, 0, 0, 1, 0.54, -2.41)" gradientUnits="userSpaceOnUse"><stop offset="0.29" stop-color="#9e9e9e"/><stop offset="0.38" stop-color="#aaa"/><stop offset="0.56" stop-color="#cacaca"/><stop offset="0.69" stop-color="#e6e6e6"/><stop offset="0.74" stop-color="#ececec"/><stop offset="0.87" stop-color="#f9f9f9"/><stop offset="1" stop-color="#fdfdfd"/></linearGradient></defs><title>72</title><g class="cls-1"><g id="Layer_1" data-name="Layer 1"><rect class="cls-2" width="72" height="72" rx="12.97" ry="12.97"/><path class="cls-3" d="M64.53,36A28.53,28.53,0,1,1,36,7.47,28.54,28.54,0,0,1,64.53,36Z"/><path class="cls-2" d="M12.25,33.52a30.86,30.86,0,0,0-2.41,7.56c-.4,2.16-.29,3,1.38,5.38,3.2,4.55,4.39,5.79,5.48,5.6s6.25-1.3,7.75-1.67c1.14-.28,1.14-.55,1.59-2.53s1.18-4.74,1.36-6.26,0-1.48-1.38-3.13-4.47-5.88-5.11-6.66-1-.55-2.47-.32-3.78.83-4.87,1.11S12.47,33.16,12.25,33.52Z"/><path class="cls-2" d="M14.44,18.05a44.91,44.91,0,0,0-2.66,4.07c-.7,1.28-.49,3.12-.06,6.67s.78,3.55,2.12,3.27l6.05-1.29c1-.22,1.75-1.92,2.66-3.42a85.36,85.36,0,0,1,5.29-7c.7-.62.49-1.24.29-2.89s-.71-5.08-1.16-5.2-3.93-.13-5.24-.21S17.1,14.7,14.44,18.05Z"/><path class="cls-2" d="M27.83,41.74S26.46,47.28,26,49.41c-.22,1.26-.27,1.54,2.31,3.25s3.87,2.74,4.7,3.2,1.57.46,4-.1a50.18,50.18,0,0,0,5.75-1.5c1-.42,2.48-3.76,3.17-6s1.23-4.05.26-4.84a44.94,44.94,0,0,0-3.68-3.06c-1.57-1.06-2.91-2.46-3.5-2.18S32.19,40,29.8,40.67C28.66,41,27.92,41.26,27.83,41.74Z"/><path class="cls-2" d="M32.67,63.64S33.8,58.92,34,57.77s.59-1.19,2.22-1.47,6-1.57,6.77-1.84S44.2,54,45.52,55s4.26,3.21,5.26,3.89c.73.51-2.64,3-7,4.14C38.67,64.46,32.63,64.42,32.67,63.64Z"/><path class="cls-2" d="M28.75,19.16s-.61-3.42-.83-5.29,0-1.66,2.45-2.71a53.45,53.45,0,0,1,9.56-2.5c1.26-.11,2.74.27,5.91,1.87s4,2.14,4.16,3.08.55,5.24.61,7.22c0,1.38-.53,1.22-2.86,2.18S43.07,25,42.51,25.29c-.76.32-2-.44-4.15-1.81A38,38,0,0,0,31,20.13C29.36,19.65,28.94,20,28.75,19.16Z"/><path class="cls-2" d="M42,26.83s-1.17,5.34-1.73,8.06-.39,3,1.19,4.2,3.38,2.89,4.34,3.63,1.58,1.59,4.61.73c3.82-1.09,4.84-1.37,6-1.77s1.4-.86,1.85-3,.77-5.39,1-7.15-.12-2-1.53-3.46-4.05-3.68-5.07-4.7a2.36,2.36,0,0,0-3-.68c-1.24.46-4.61,1.71-5.85,2.39S42.19,25.81,42,26.83Z"/><path class="cls-2" d="M62.54,28.85s-1.84.61-2.4.88-.49,2.08-.71,3.94a61.64,61.64,0,0,1-1.34,7c-.26.76.79,1.39,1.66,2.8,1.35,2.19,2.07,3.4,2.37,3s2.24-4.69,2.15-11.77C64,31.5,63.47,28.32,62.54,28.85Z"/><path class="cls-2" d="M9,44.56s.27-.78.5-.38a54.35,54.35,0,0,0,5.11,7.2,2.65,2.65,0,0,1,1.08,2.34c.1,1.39-.06,1.72-.87.91S10.13,48.92,9,44.56Z"/><path class="cls-2" d="M41.82,8.12s-.41-.14-.57,0,.77.44,2.41,1.15A39.91,39.91,0,0,1,48.93,12c.74.44,1,.54,1.68.27s.84-.37.1-.78S45.27,8.62,41.82,8.12Z"/><path class="cls-4" d="M41.11,55.29s-3.55.88-5.83,1.39c-1.5.19-1.31,2.71-2,5.49,0,0,.9-3.21,1.36-4.37S37,57,41.11,55.29Z"/><path class="cls-5" d="M15.86,16.86a35.46,35.46,0,0,1,4.56-4.13c1.32-.73,6.31-.24,6.31-.24s-3.5.11-5.15.21S15.86,16.86,15.86,16.86Z"/><path class="cls-2" d="M33.75,10.4a50.33,50.33,0,0,1,6.59-1.52c1.57-.07,4.71,1.24,8.17,3.21-3.85-1.7-6.73-2.82-7.91-2.82S33.75,10.4,33.75,10.4Z"/><path class="cls-2" d="M14.92,32.72a38.52,38.52,0,0,1,5.17-1c.68.11,6,7.37,6,7.37s-4.62-5.67-6-6.35S14.92,32.72,14.92,32.72Z"/><path class="cls-6" d="M54.45,25.23s3.07,2.88,4,3.78.84,1,.06,7.57c.36-4.21.57-6-.22-7S54.45,25.23,54.45,25.23Z"/><path class="cls-5" d="M26.72,44.35s-.73,3.29-1.13,4.77-1.79,1.29-5.39,2c3.8-1.15,4.73-1.28,5.06-2.29Z"/><path class="cls-5" d="M26.78,46.65s.78-3.24,1.06-4.54S30.7,40.68,33.29,40c0,0-2.42.79-4,1.42S27.73,44.15,26.78,46.65Z"/><path class="cls-2" d="M28.28,52.4s2.84,2,4.08,2.85,1.94.9,5.18.2a34.11,34.11,0,0,0,4.15-1.05,55.13,55.13,0,0,1-6.91,1.06C32.43,55.53,28.28,52.4,28.28,52.4Z"/><path class="cls-5" d="M40.44,35.75s1.28-7,1.69-8.67,3.33-2.54,6.39-3.79c0,0-3.47,1.8-4.83,2.69S42.47,27.91,40.44,35.75Z"/><path class="cls-5" d="M43.28,41.39s2.06,1.68,2.73,2.3.67,2.18-1.38,7.12c.88-3.31,2.1-6.12.88-7.24S43.28,41.39,43.28,41.39Z"/><path class="cls-5" d="M11.58,47.72s1.64,2.24,2.78,3.51c1,1,1.2,1.21,1.21,3.3a4,4,0,0,0-1-2.69C14,51.16,11.58,47.72,11.58,47.72Z"/><path class="cls-7" d="M36,7.47A28.53,28.53,0,1,0,64.53,36,28.53,28.53,0,0,0,36,7.47Zm-.23,51.15c-14.37,0-26-11-26.07-24.71s11.61-24.76,26-24.79,26.05,11,26.07,24.7S50.1,58.59,35.72,58.62Z"/><path class="cls-8" d="M31.57,22.11a2.58,2.58,0,0,1-.71,3.53,2.58,2.58,0,0,1-3.59.11A2.59,2.59,0,0,1,28,22.23C29.17,21.23,30.78,21.17,31.57,22.11Z"/><path class="cls-8" d="M26.41,27.23a1.28,1.28,0,0,1-1.9,1.61,1.28,1.28,0,0,1,1.9-1.61Z"/></g></g></svg>