<svg xmlns="http://www.w3.org/2000/svg" xmlns:xlink="http://www.w3.org/1999/xlink" viewBox="0 0 192 192"><defs><style>.cls-1{isolation:isolate;}.cls-2,.cls-5{fill:#fff;}.cls-3{fill:#323334;}.cls-4{fill:#979797;}.cls-4,.cls-5,.cls-8{mix-blend-mode:screen;}.cls-6{fill:url(#linear-gradient);}.cls-7{fill:#cfd1d2;mix-blend-mode:multiply;}.cls-8{fill:#4a4b4c;}</style><linearGradient id="linear-gradient" x1="130.88" y1="96.53" x2="159.02" y2="78.49" gradientTransform="matrix(1, 0, 0, 1, 0.42, -1.58)" gradientUnits="userSpaceOnUse"><stop offset="0.29" stop-color="#9e9e9e"/><stop offset="0.38" stop-color="#aaa"/><stop offset="0.56" stop-color="#cacaca"/><stop offset="0.69" stop-color="#e6e6e6"/><stop offset="0.74" stop-color="#ececec"/><stop offset="0.87" stop-color="#f9f9f9"/><stop offset="1" stop-color="#fdfdfd"/></linearGradient></defs><title>192</title><g class="cls-1"><g id="Layer_1" data-name="Layer 1"><rect class="cls-2" width="192" height="192" rx="34.6" ry="34.6"/><path class="cls-3" d="M172.07,95.87a76.07,76.07,0,1,1-76.2-75.94A76.06,76.06,0,0,1,172.07,95.87Z"/><path class="cls-2" d="M32.66,89.4a82.57,82.57,0,0,0-6.41,20.14c-1.08,5.76-.79,8,3.67,14.34,8.54,12.14,11.7,15.45,14.62,15s16.65-3.47,20.66-4.45c3-.75,3-1.48,4.24-6.76s3.14-12.65,3.62-16.7-.13-3.92-3.66-8.34S57.46,86.9,55.75,84.82s-2.56-1.47-6.57-.85-10.08,2.22-13,3S33.27,88.41,32.66,89.4Z"/><path class="cls-2" d="M38.51,48.12A126.06,126.06,0,0,0,31.41,59c-1.87,3.41-1.3,8.34-.15,17.8s2.08,9.47,5.64,8.7S50.4,82.62,53,82.05s4.68-5.13,7.11-9.11A216.79,216.79,0,0,1,74.25,54.41c1.86-1.65,1.31-3.31.75-7.71s-1.88-13.56-3.08-13.89-10.49-.32-14-.53S45.6,39.21,38.51,48.12Z"/><path class="cls-2" d="M74.22,111.32s-3.66,14.75-4.88,20.45c-.6,3.35-.72,4.09,6.16,8.67S85.82,147.72,88,149s4.18,1.23,10.56-.27,12.7-2.84,15.34-4,6.61-10,8.44-16,3.29-10.79.71-12.89-5.66-5.32-9.84-8.16-7.74-6.55-9.33-5.81-18.08,4.89-24.46,6.6C76.43,109.3,74.44,110,74.22,111.32Z"/><path class="cls-2" d="M87.13,169.71s3-12.59,3.48-15.65,1.57-3.18,5.93-3.92,16-4.19,18-4.92,3.29-1.12,6.81,1.56,11.38,8.55,14.05,10.38c1.94,1.34-7,7.84-18.76,11C103.11,171.88,87,171.79,87.13,169.71Z"/><path class="cls-2" d="M76.66,51.1S75,42,74.45,37s0-4.41,6.55-7.22,22.14-6.36,25.49-6.66,7.29.72,15.75,5,10.64,5.72,11.09,8.22,1.48,14,1.63,19.27c-.14,3.67-1.4,3.24-7.63,5.81-6.39,2.63-12.48,5.2-14,6.06-2,.86-5.44-1.16-11.06-4.8a101.83,101.83,0,0,0-19.61-8.94C78.3,52.4,77.17,53.24,76.66,51.1Z"/><path class="cls-2" d="M112.06,71.54s-3.13,14.24-4.62,21.51c-1.48,7-1,8,3.17,11.19s9,7.71,11.57,9.67,4.21,4.25,12.3,2c10.2-2.89,12.9-3.66,16-4.72s3.75-2.28,4.94-8,2.07-14.39,2.66-19.09-.3-5.44-4.06-9.22S143.24,65,140.54,62.26s-4.66-3-8-1.81S120.29,65,117,66.84,112.5,68.82,112.06,71.54Z"/><path class="cls-2" d="M166.76,77s-4.89,1.62-6.39,2.33-1.29,5.55-1.89,10.5a167.8,167.8,0,0,1-3.56,18.68c-.7,2,2.09,3.7,4.41,7.46,3.61,5.85,5.52,9.07,6.31,8s6-12.53,5.75-31.4C170.77,84,169.26,75.53,166.76,77Z"/><path class="cls-2" d="M24,118.81s.71-2.07,1.34-1S33.17,130.71,39,137c2.06,2,2.59,2.53,2.87,6.23s-.17,4.6-2.32,2.44S27,130.45,24,118.81Z"/><path class="cls-2" d="M111.51,21.65s-1.07-.36-1.52.09,2.06,1.17,6.45,3.06a106.28,106.28,0,0,1,14.05,7.28c2,1.17,2.77,1.44,4.47.72s2.24-1,.27-2.08S120.72,23,111.51,21.65Z"/><path class="cls-4" d="M109.64,147.44s-9.48,2.33-15.57,3.69c-4,.52-3.49,7.24-5.24,14.67,0,0,2.4-8.59,3.61-11.67S98.6,152,109.64,147.44Z"/><path class="cls-5" d="M42.29,45s8.64-9.08,12.16-11,16.83-.64,16.83-.64-9.33.31-13.73.56S42.29,45,42.29,45Z"/><path class="cls-2" d="M90,27.74s13.4-3.89,17.59-4.07,12.55,3.32,21.79,8.58c-10.29-4.56-18-7.53-21.1-7.53S90,27.74,90,27.74Z"/><path class="cls-2" d="M39.79,87.26s12-3.05,13.79-2.75,15.94,19.65,15.94,19.65S57.19,89.05,53.59,87.24,39.79,87.26,39.79,87.26Z"/><path class="cls-6" d="M145.19,67.28s8.19,7.67,10.59,10.08,2.26,2.56.17,20.19c1-11.23,1.52-15.93-.6-18.77S145.19,67.28,145.19,67.28Z"/><path class="cls-5" d="M71.25,118.26s-1.94,8.79-3,12.74-4.79,3.42-14.38,5.41C64,133.34,66.48,133,67.36,130.28S71.25,118.26,71.25,118.26Z"/><path class="cls-5" d="M71.4,124.4s2.09-8.64,2.83-12.12c1-3.33,7.64-3.8,14.54-5.63,0,0-6.45,2.14-10.64,3.81S73.94,117.73,71.4,124.4Z"/><path class="cls-2" d="M75.41,139.73s7.56,5.38,10.89,7.61,5.16,2.41,13.82.53,11.06-2.81,11.06-2.81S99,147.69,92.75,147.88,75.41,139.73,75.41,139.73Z"/><path class="cls-5" d="M107.84,95.32s3.42-18.69,4.5-23.09,8.88-6.8,17-10.11c0,0-9.25,4.78-12.88,7.17S113.25,74.42,107.84,95.32Z"/><path class="cls-5" d="M115.42,110.38s5.49,4.47,7.27,6.11,1.78,5.83-3.67,19c2.35-8.82,5.6-16.3,2.33-19.28S115.42,110.38,115.42,110.38Z"/><path class="cls-5" d="M30.87,127.26s4.38,6,7.42,9.35c2.66,2.75,3.21,3.22,3.22,8.81-.4-3.62-.88-5.38-2.6-7.19S30.87,127.26,30.87,127.26Z"/><path class="cls-7" d="M95.87,19.93a76.07,76.07,0,1,0,76.2,75.94A76.06,76.06,0,0,0,95.87,19.93Zm-.61,136.38c-38.34.07-69.47-29.43-69.54-65.87s31-66,69.31-66.12,69.47,29.43,69.53,65.87S133.6,156.24,95.26,156.31Z"/><path class="cls-8" d="M84.2,59c2.12,2.51,1.27,6.71-1.89,9.39s-7.46,2.82-9.58.32S71.46,62,74.62,59.29,82.07,56.47,84.2,59Z"/><path class="cls-8" d="M70.44,72.62c.94,1.11.56,3-.84,4.16s-3.3,1.25-4.24.14-.57-3,.84-4.16S69.5,71.51,70.44,72.62Z"/></g></g></svg>