<svg xmlns="http://www.w3.org/2000/svg" xmlns:xlink="http://www.w3.org/1999/xlink" viewBox="0 0 144 144"><defs><style>.cls-1{isolation:isolate;}.cls-2,.cls-5{fill:#fff;}.cls-3{fill:#323334;}.cls-4{fill:#979797;}.cls-4,.cls-5,.cls-8{mix-blend-mode:screen;}.cls-6{fill:url(#linear-gradient);}.cls-7{fill:#cfd1d2;mix-blend-mode:multiply;}.cls-8{fill:#4a4b4c;}</style><linearGradient id="linear-gradient" x1="98" y1="70.59" x2="119.1" y2="57.06" gradientTransform="matrix(1, 0, 0, 1, 0.48, 0.62)" gradientUnits="userSpaceOnUse"><stop offset="0.29" stop-color="#9e9e9e"/><stop offset="0.38" stop-color="#aaa"/><stop offset="0.56" stop-color="#cacaca"/><stop offset="0.69" stop-color="#e6e6e6"/><stop offset="0.74" stop-color="#ececec"/><stop offset="0.87" stop-color="#f9f9f9"/><stop offset="1" stop-color="#fdfdfd"/></linearGradient></defs><title>144</title><g class="cls-1"><g id="Layer_1" data-name="Layer 1"><rect class="cls-2" width="144" height="144" rx="25.95" ry="25.95"/><path class="cls-3" d="M129.05,71.9A57.05,57.05,0,1,1,71.9,15,57,57,0,0,1,129.05,71.9Z"/><path class="cls-2" d="M24.5,67.05a61.5,61.5,0,0,0-4.81,15.1c-.81,4.33-.59,6,2.75,10.76,6.4,9.1,8.78,11.58,11,11.21s12.49-2.6,15.5-3.34c2.28-.55,2.28-1.11,3.18-5.06s2.36-9.49,2.72-12.53-.1-2.94-2.75-6.25-9-11.76-10.23-13.33-1.92-1.1-4.93-.63-7.57,1.67-9.75,2.22S25,66.31,24.5,67.05Z"/><path class="cls-2" d="M28.89,36.09a92.2,92.2,0,0,0-5.33,8.15c-1.4,2.55-1,6.25-.12,13.35s1.56,7.1,4.23,6.52l12.1-2.57c2-.43,3.51-3.85,5.34-6.83a161,161,0,0,1,10.58-13.9c1.39-1.24,1-2.48.56-5.79s-1.41-10.16-2.31-10.41-7.86-.24-10.48-.4S34.2,29.41,28.89,36.09Z"/><path class="cls-2" d="M55.66,83.49S52.92,94.55,52,98.83c-.46,2.51-.55,3.07,4.61,6.5s7.74,5.46,9.4,6.39,3.13.92,7.92-.2,9.53-2.13,11.5-3,5-7.54,6.33-12,2.47-8.09.54-9.67a90.62,90.62,0,0,0-7.38-6.12c-3.13-2.13-5.8-4.91-7-4.35s-13.56,3.66-18.34,4.94C57.32,82,55.83,82.53,55.66,83.49Z"/><path class="cls-2" d="M65.34,127.29s2.26-9.45,2.62-11.74,1.17-2.39,4.44-3,12-3.14,13.53-3.69,2.47-.84,5.1,1.17,8.54,6.42,10.54,7.79c1.45,1-5.28,5.88-14.06,8.28C77.34,128.91,65.26,128.84,65.34,127.29Z"/><path class="cls-2" d="M57.5,38.32s-1.22-6.84-1.66-10.58,0-3.31,4.91-5.42,16.6-4.77,19.12-5,5.46.55,11.81,3.73,8,4.29,8.31,6.17,1.11,10.47,1.23,14.45c-.1,2.75-1,2.43-5.72,4.36S86.13,49.92,85,50.57c-1.52.65-4.08-.87-8.29-3.6A76.57,76.57,0,0,0,62,40.27C58.73,39.3,57.88,39.93,57.5,38.32Z"/><path class="cls-2" d="M84,53.66S81.7,64.33,80.58,69.79c-1.11,5.22-.77,6,2.38,8.39s6.76,5.78,8.67,7.25,3.16,3.19,9.23,1.47c7.65-2.18,9.67-2.75,12-3.55s2.81-1.7,3.7-6,1.56-10.79,2-14.31-.23-4.09-3-6.92-8.11-7.37-10.14-9.41-3.49-2.26-6-1.35a125.05,125.05,0,0,0-11.69,4.79C85.28,51.5,84.38,51.61,84,53.66Z"/><path class="cls-2" d="M125.07,57.71s-3.67,1.22-4.79,1.75-1,4.16-1.42,7.87a125.3,125.3,0,0,1-2.67,14c-.52,1.52,1.57,2.78,3.31,5.6,2.71,4.38,4.13,6.81,4.73,6s4.49-9.4,4.31-23.55C128.08,63,126.94,56.65,125.07,57.71Z"/><path class="cls-2" d="M18,89.11s.54-1.56,1-.75S24.88,98,29.25,102.77c1.54,1.48,1.95,1.89,2.15,4.67s-.13,3.45-1.74,1.83S20.25,97.84,18,89.11Z"/><path class="cls-2" d="M83.63,16.24s-.8-.27-1.14.06,1.55.88,4.84,2.3a79.88,79.88,0,0,1,10.54,5.46c1.47.88,2.08,1.08,3.35.54s1.68-.75.2-1.56S90.54,17.24,83.63,16.24Z"/><path class="cls-4" d="M82.23,110.58s-7.11,1.75-11.67,2.77c-3,.39-2.63,5.43-3.94,11,0,0,1.8-6.44,2.71-8.75S74,114,82.23,110.58Z"/><path class="cls-5" d="M31.72,33.73s6.48-6.81,9.12-8.27S53.46,25,53.46,25s-7,.23-10.3.42S31.72,33.73,31.72,33.73Z"/><path class="cls-2" d="M67.49,20.81s10.06-2.92,13.19-3.06S90.09,20.24,97,24.18c-7.71-3.41-13.46-5.64-15.81-5.64S67.49,20.81,67.49,20.81Z"/><path class="cls-2" d="M29.84,65.45s9-2.29,10.35-2.07,12,14.74,12,14.74-9.25-11.33-12-12.69S29.84,65.45,29.84,65.45Z"/><path class="cls-6" d="M108.89,50.46S115,56.21,116.83,58s1.7,1.92.13,15.14c.73-8.42,1.14-11.94-.44-14.07S108.89,50.46,108.89,50.46Z"/><path class="cls-5" d="M53.44,88.7S52,95.29,51.19,98.25s-3.6,2.56-10.79,4c7.59-2.3,9.46-2.57,10.12-4.59S53.44,88.7,53.44,88.7Z"/><path class="cls-5" d="M53.55,93.3s1.57-6.48,2.12-9.09c.79-2.5,5.74-2.85,10.91-4.22,0,0-4.84,1.6-8,2.85S55.45,88.3,53.55,93.3Z"/><path class="cls-2" d="M56.56,104.8s5.67,4,8.16,5.7,3.88,1.81,10.37.4a67.45,67.45,0,0,0,8.29-2.1s-9.12,2-13.82,2.11S56.56,104.8,56.56,104.8Z"/><path class="cls-5" d="M80.88,71.49s2.56-14,3.38-17.32,6.66-5.1,12.78-7.58c0,0-6.94,3.59-9.66,5.38S84.94,55.82,80.88,71.49Z"/><path class="cls-5" d="M86.56,82.78s4.12,3.36,5.46,4.59,1.34,4.37-2.76,14.24C91,95,93.46,89.38,91,87.15S86.56,82.78,86.56,82.78Z"/><path class="cls-5" d="M23.15,95.44s3.29,4.48,5.57,7c2,2.07,2.4,2.42,2.41,6.61-.3-2.71-.66-4-1.94-5.39S23.15,95.44,23.15,95.44Z"/><path class="cls-7" d="M71.9,15a57.05,57.05,0,1,0,57.15,57A57,57,0,0,0,71.9,15Zm-.45,102.28c-28.76,0-52.11-22.07-52.16-49.4s23.23-49.54,52-49.59,52.11,22.07,52.15,49.41S100.2,117.18,71.45,117.23Z"/><path class="cls-8" d="M63.15,44.23c1.59,1.88.95,5-1.42,7s-5.59,2.12-7.18.24-1-5,1.42-7S61.56,42.35,63.15,44.23Z"/><path class="cls-8" d="M52.83,54.46A2.57,2.57,0,0,1,49,57.69a2.57,2.57,0,0,1,3.81-3.23Z"/></g></g></svg>