<svg xmlns="http://www.w3.org/2000/svg" xmlns:xlink="http://www.w3.org/1999/xlink" viewBox="0 0 500 500"><defs><style>.cls-1{isolation:isolate;}.cls-2,.cls-5{fill:#fff;}.cls-3{fill:#323334;}.cls-4{fill:#979797;}.cls-4,.cls-5,.cls-8{mix-blend-mode:screen;}.cls-6{fill:url(#linear-gradient);}.cls-7{fill:#cfd1d2;mix-blend-mode:multiply;}.cls-8{fill:#4a4b4c;}</style><linearGradient id="linear-gradient" x1="341.77" y1="246.93" x2="415.04" y2="199.93" gradientTransform="matrix(1, 0, 0, 1, 0.17, 0.35)" gradientUnits="userSpaceOnUse"><stop offset="0.29" stop-color="#9e9e9e"/><stop offset="0.38" stop-color="#aaa"/><stop offset="0.56" stop-color="#cacaca"/><stop offset="0.69" stop-color="#e6e6e6"/><stop offset="0.74" stop-color="#ececec"/><stop offset="0.87" stop-color="#f9f9f9"/><stop offset="1" stop-color="#fdfdfd"/></linearGradient></defs><title>Artboard 2</title><g class="cls-1"><g id="Layer_1" data-name="Layer 1"><rect class="cls-2" width="500" height="500" rx="90.1" ry="90.1"/><path class="cls-3" d="M448.11,249.65c.19,109.41-88.35,198.26-197.75,198.46S52.09,359.75,51.89,250.35,140.24,52.09,249.66,51.89,447.91,140.24,448.11,249.65Z"/><path class="cls-2" d="M85.05,232.8a215.2,215.2,0,0,0-16.69,52.45c-2.82,15-2,20.84,9.56,37.37,22.23,31.59,30.47,40.21,38.07,38.92s43.36-9,53.8-11.6c7.92-1.93,7.91-3.85,11.05-17.6s8.18-32.93,9.42-43.48-.33-10.23-9.53-21.71-31.1-40.85-35.54-46.28-6.66-3.82-17.1-2.2-26.27,5.8-33.87,7.72S86.63,230.25,85.05,232.8Z"/><path class="cls-2" d="M100.3,125.32A321.76,321.76,0,0,0,81.8,153.6c-4.87,8.88-3.38,21.7-.4,46.36s5.41,24.64,14.69,22.65,35.17-7.46,42-9,12.2-13.34,18.53-23.7,31.64-43.08,36.74-48.26c4.83-4.31,3.4-8.62,2-20.09s-4.9-35.3-8-36.16-27.31-.84-36.4-1.39S118.75,102.1,100.3,125.32Z"/><path class="cls-2" d="M193.28,289.89s-9.52,38.42-12.7,53.26c-1.58,8.72-1.89,10.66,16,22.57s26.88,19,32.64,22.19,10.87,3.22,27.49-.69,33.08-7.41,39.94-10.39c6.71-2.91,17.22-26.17,22-41.66s8.58-28.09,1.86-33.56-14.73-13.85-25.61-21.25-20.16-17.06-24.32-15.12S223.52,278,206.91,282.41C199,284.64,193.86,286.56,193.28,289.89Z"/><path class="cls-2" d="M226.89,442s7.82-32.81,9.07-40.77,4.09-8.29,15.44-10.22,41.61-10.89,47-12.81,8.56-2.91,17.72,4.07,29.63,22.26,36.58,27c5.05,3.49-18.33,20.43-48.83,28.74C268.53,447.62,226.58,447.37,226.89,442Z"/><path class="cls-2" d="M199.64,133.06s-4.21-23.74-5.75-36.75,0-11.5,17-18.81,57.65-16.57,66.39-17.35,19,1.88,41,12.95S346.05,88,347.2,94.5s3.86,36.38,4.26,50.18c-.36,9.57-3.65,8.45-19.87,15.14-16.64,6.85-32.51,13.53-36.41,15.78-5.27,2.25-14.17-3-28.79-12.51-13-8.41-39.67-19.93-51.08-23.28S201,138.64,199.64,133.06Z"/><path class="cls-2" d="M291.82,186.3s-8.15,37.08-12,56c-3.87,18.14-2.69,20.9,8.26,29.16s23.47,20.06,30.11,25.18,11,11.05,32.05,5.07c26.54-7.54,33.58-9.53,41.76-12.3s9.76-5.93,12.86-20.92,5.4-37.46,6.94-49.69-.8-14.18-10.58-24S373,169.21,366,162.13s-12.12-7.87-20.71-4.7-32,11.89-40.59,16.63S293,179.21,291.82,186.3Z"/><path class="cls-2" d="M434.27,200.38s-12.75,4.22-16.65,6.07-3.36,14.46-4.9,27.35-6.18,37.59-9.29,48.64c-1.81,5.25,5.46,9.65,11.49,19.43,9.41,15.23,14.37,23.64,16.45,20.73s15.56-32.62,15-81.76C444.72,218.75,440.78,196.69,434.27,200.38Z"/><path class="cls-2" d="M62.57,309.41s1.86-5.4,3.5-2.59,20.31,33.58,35.48,50c5.37,5.16,6.77,6.57,7.49,16.21s-.45,12-6.05,6.36S70.32,339.73,62.57,309.41Z"/><path class="cls-2" d="M290.4,56.37s-2.8-.94-4,.24,5.36,3,16.78,8,29.13,13.81,36.59,19c5.13,3,7.23,3.75,11.65,1.86s5.82-2.59.69-5.41S314.39,59.85,290.4,56.37Z"/><path class="cls-4" d="M285.51,384S260.83,390,245,393.58c-10.41,1.34-9.1,18.85-13.66,38.19,0,0,6.27-22.36,9.42-30.38S256.78,395.7,285.51,384Z"/><path class="cls-5" d="M110.14,117.1s22.5-23.62,31.67-28.7,43.82-1.68,43.82-1.68-24.31.8-35.75,1.46S110.14,117.1,110.14,117.1Z"/><path class="cls-2" d="M234.35,72.25s34.91-10.13,45.8-10.61S312.83,70.28,336.89,84C310.11,72.12,290.12,64.37,282,64.38S234.35,72.25,234.35,72.25Z"/><path class="cls-2" d="M103.62,227.25s31.23-7.95,35.92-7.17S181,271.26,181,271.26s-32.09-39.37-41.48-44.08S103.62,227.25,103.62,227.25Z"/><path class="cls-6" d="M378.1,175.22s21.32,19.95,27.57,26.24,5.88,6.66.46,52.58c2.51-29.26,3.95-41.47-1.56-48.87S378.1,175.22,378.1,175.22Z"/><path class="cls-5" d="M185.54,308s-5,22.89-7.8,33.17-12.48,8.9-37.46,14.08c26.37-8,32.84-8.93,35.15-15.94S185.54,308,185.54,308Z"/><path class="cls-5" d="M185.94,324s5.44-22.48,7.37-31.55c2.72-8.68,19.9-9.9,37.86-14.65,0,0-16.78,5.55-27.71,9.9S192.55,306.6,185.94,324Z"/><path class="cls-2" d="M196.38,363.88s19.7,14,28.35,19.81,13.45,6.27,36,1.39,28.79-7.32,28.79-7.32-31.67,6.84-48,7.35S196.38,363.88,196.38,363.88Z"/><path class="cls-5" d="M280.84,248.23s8.89-48.68,11.71-60.14,23.13-17.7,44.4-26.32c0,0-24.09,12.45-33.53,18.67S294.93,193.81,280.84,248.23Z"/><path class="cls-5" d="M300.57,287.44s14.29,11.65,18.93,15.93,4.65,15.17-9.55,49.45c6.12-23,14.57-42.46,6.08-50.22S300.57,287.44,300.57,287.44Z"/><path class="cls-5" d="M80.39,331.39S91.79,347,99.72,355.74c6.92,7.17,8.35,8.4,8.37,22.95-1-9.42-2.28-14-6.75-18.71S80.39,331.39,80.39,331.39Z"/><path class="cls-7" d="M249.66,51.89c-109.42.2-198,89-197.77,198.46s89.05,197.94,198.47,197.76S448.3,359.06,448.11,249.65,359.06,51.7,249.66,51.89Zm-1.58,355.16C148.23,407.23,67.16,330.43,67,235.51s80.64-172,180.49-172.17S428.39,140,428.55,234.88,347.92,406.87,248.08,407.05Z"/><path class="cls-8" d="M219.26,153.57c5.53,6.53,3.32,17.48-4.92,24.45s-19.41,7.35-24.93.82-3.32-17.47,4.92-24.45S213.74,147.05,219.26,153.57Z"/><path class="cls-8" d="M183.43,189.11c2.44,2.89,1.47,7.75-2.18,10.84s-8.6,3.25-11.05.36-1.47-7.74,2.18-10.83S181,186.22,183.43,189.11Z"/></g></g></svg>